<svg width="174" height="37" viewBox="0 0 174 37" fill="none" xmlns="http://www.w3.org/2000/svg">
<path d="M0.835 37V0.549997H5.92V17.74L14.29 0.549997H19.015L11.815 16.615L20.185 37H15.235L8.26 19.9L5.92 24.13V37H0.835ZM30.8853 37V0.549997H35.8803V37H30.8853ZM49.5474 37V0.549997H54.5424V37H49.5474ZM71.9445 37V4.33H65.7795V0.549997H83.0145V4.33H77.0295V37H71.9445ZM94.0284 37V0.549997H99.1134V16.3H108.473V0.549997H113.558V37H108.473V19.945H99.1134V37H94.0284ZM132.333 37V24.13L124.458 0.549997H129.183L134.763 18.145L140.253 0.549997H145.023L137.193 24.13V37H132.333ZM152.927 37L160.667 0.549997H165.572L173.357 37H168.542L166.877 27.82H159.452L157.697 37H152.927ZM160.127 24.175H166.202L163.142 7.75L160.127 24.175Z" fill="#FF9999"/>
</svg>
