<svg width="86" height="59" viewBox="0 0 86 59" fill="none" xmlns="http://www.w3.org/2000/svg">
<path d="M20.7 47L10.17 32.24L6.93 36.065V47H3.555V16.31H6.93V31.835L19.89 16.31H23.625L12.15 29.9L24.525 47H20.7Z" fill="#FFF5F5"/>
<path d="M27 37V27.64H28.36V37H27ZM27.68 25.82C27.3733 25.82 27.1133 25.7133 26.9 25.5C26.7 25.2867 26.6 25.0267 26.6 24.72C26.6 24.4267 26.7 24.18 26.9 23.98C27.1133 23.7667 27.3733 23.66 27.68 23.66C27.9733 23.66 28.2267 23.7667 28.44 23.98C28.6533 24.18 28.76 24.4333 28.76 24.74C28.76 25.0333 28.6533 25.2867 28.44 25.5C28.2267 25.7133 27.9733 25.82 27.68 25.82ZM34.9516 37V27.64H36.3116V37H34.9516ZM35.6316 25.82C35.3249 25.82 35.0649 25.7133 34.8516 25.5C34.6516 25.2867 34.5516 25.0267 34.5516 24.72C34.5516 24.4267 34.6516 24.18 34.8516 23.98C35.0649 23.7667 35.3249 23.66 35.6316 23.66C35.9249 23.66 36.1782 23.7667 36.3916 23.98C36.6049 24.18 36.7116 24.4333 36.7116 24.74C36.7116 25.0333 36.6049 25.2867 36.3916 25.5C36.1782 25.7133 35.9249 25.82 35.6316 25.82ZM42.6631 37V28.88H41.0631V27.64H42.6631V24.54H44.0231V27.64H46.1831V28.88H44.0231V37H42.6631ZM54.7309 27.32C55.3843 27.32 55.9843 27.4533 56.5309 27.72C57.0909 27.9867 57.5309 28.38 57.8509 28.9C58.1843 29.42 58.3509 30.0333 58.3509 30.74V37H56.9909V31.34C56.9909 29.4867 56.1643 28.56 54.5109 28.56C53.5509 28.56 52.8309 28.9 52.3509 29.58C51.8709 30.26 51.6309 31.1733 51.6309 32.32V37H50.2709V22.48H51.6309V29.2C51.9509 28.6 52.3709 28.14 52.8909 27.82C53.4243 27.4867 54.0376 27.32 54.7309 27.32ZM69.9945 27.64H71.2745L66.2145 41H64.8545L66.3345 37.18L62.4945 27.64H63.9145L67.0145 35.4L69.9945 27.64ZM83.8389 27.64V37H82.4789V35.62C82.0922 36.1533 81.6189 36.5733 81.0589 36.88C80.4989 37.1733 79.8856 37.32 79.2189 37.32C78.3256 37.32 77.5256 37.1067 76.8189 36.68C76.1122 36.2533 75.5589 35.66 75.1589 34.9C74.7589 34.14 74.5589 33.2733 74.5589 32.3C74.5589 31.34 74.7522 30.4867 75.1389 29.74C75.5389 28.98 76.0856 28.3867 76.7789 27.96C77.4856 27.5333 78.2856 27.32 79.1789 27.32C79.8589 27.32 80.4789 27.4733 81.0389 27.78C81.6122 28.0733 82.0922 28.4933 82.4789 29.04V27.64H83.8389ZM79.1789 36.08C79.8189 36.08 80.3856 35.92 80.8789 35.6C81.3856 35.28 81.7789 34.8333 82.0589 34.26C82.3389 33.6867 82.4789 33.04 82.4789 32.32C82.4789 31.6 82.3389 30.9533 82.0589 30.38C81.7789 29.8067 81.3856 29.36 80.8789 29.04C80.3856 28.72 79.8189 28.56 79.1789 28.56C78.5522 28.56 77.9922 28.72 77.4989 29.04C77.0056 29.36 76.6189 29.8067 76.3389 30.38C76.0589 30.94 75.9189 31.58 75.9189 32.3C75.9189 33.0333 76.0589 33.6867 76.3389 34.26C76.6189 34.8333 77.0056 35.28 77.4989 35.6C77.9922 35.92 78.5522 36.08 79.1789 36.08Z" fill="#FFF5F5"/>
</svg>
